G04 #@! TF.GenerationSoftware,KiCad,Pcbnew,8.0.6*
G04 #@! TF.CreationDate,2025-03-23T16:03:48+01:00*
G04 #@! TF.ProjectId,RS485-insolated-repeater,52533438-352d-4696-9e73-6f6c61746564,v1.0*
G04 #@! TF.SameCoordinates,Original*
G04 #@! TF.FileFunction,Soldermask,Top*
G04 #@! TF.FilePolarity,Negative*
%FSLAX46Y46*%
G04 Gerber Fmt 4.6, Leading zero omitted, Abs format (unit mm)*
G04 Created by KiCad (PCBNEW 8.0.6) date 2025-03-23 16:03:48*
%MOMM*%
%LPD*%
G01*
G04 APERTURE LIST*
G04 Aperture macros list*
%AMRoundRect*
0 Rectangle with rounded corners*
0 $1 Rounding radius*
0 $2 $3 $4 $5 $6 $7 $8 $9 X,Y pos of 4 corners*
0 Add a 4 corners polygon primitive as box body*
4,1,4,$2,$3,$4,$5,$6,$7,$8,$9,$2,$3,0*
0 Add four circle primitives for the rounded corners*
1,1,$1+$1,$2,$3*
1,1,$1+$1,$4,$5*
1,1,$1+$1,$6,$7*
1,1,$1+$1,$8,$9*
0 Add four rect primitives between the rounded corners*
20,1,$1+$1,$2,$3,$4,$5,0*
20,1,$1+$1,$4,$5,$6,$7,0*
20,1,$1+$1,$6,$7,$8,$9,0*
20,1,$1+$1,$8,$9,$2,$3,0*%
G04 Aperture macros list end*
%ADD10O,1.800000X1.000000*%
%ADD11O,2.100000X1.000000*%
%ADD12RoundRect,0.150000X0.425000X-0.150000X0.425000X0.150000X-0.425000X0.150000X-0.425000X-0.150000X0*%
%ADD13RoundRect,0.075000X0.500000X-0.075000X0.500000X0.075000X-0.500000X0.075000X-0.500000X-0.075000X0*%
%ADD14C,0.650000*%
%ADD15R,1.250000X1.000000*%
%ADD16RoundRect,0.150000X-0.150000X0.512500X-0.150000X-0.512500X0.150000X-0.512500X0.150000X0.512500X0*%
%ADD17RoundRect,0.250000X1.450000X-0.312500X1.450000X0.312500X-1.450000X0.312500X-1.450000X-0.312500X0*%
%ADD18C,1.803400*%
%ADD19RoundRect,0.140000X-0.140000X-0.170000X0.140000X-0.170000X0.140000X0.170000X-0.140000X0.170000X0*%
%ADD20RoundRect,0.140000X0.170000X-0.140000X0.170000X0.140000X-0.170000X0.140000X-0.170000X-0.140000X0*%
%ADD21RoundRect,0.150000X0.512500X0.150000X-0.512500X0.150000X-0.512500X-0.150000X0.512500X-0.150000X0*%
%ADD22RoundRect,0.250000X0.262500X0.450000X-0.262500X0.450000X-0.262500X-0.450000X0.262500X-0.450000X0*%
%ADD23C,5.700000*%
%ADD24RoundRect,0.140000X-0.170000X0.140000X-0.170000X-0.140000X0.170000X-0.140000X0.170000X0.140000X0*%
%ADD25RoundRect,0.250000X-0.250000X-0.475000X0.250000X-0.475000X0.250000X0.475000X-0.250000X0.475000X0*%
%ADD26RoundRect,0.243750X0.243750X0.456250X-0.243750X0.456250X-0.243750X-0.456250X0.243750X-0.456250X0*%
%ADD27O,1.750000X1.200000*%
%ADD28RoundRect,0.250000X0.625000X-0.350000X0.625000X0.350000X-0.625000X0.350000X-0.625000X-0.350000X0*%
%ADD29RoundRect,0.250000X-1.100000X0.325000X-1.100000X-0.325000X1.100000X-0.325000X1.100000X0.325000X0*%
%ADD30RoundRect,0.135000X0.185000X-0.135000X0.185000X0.135000X-0.185000X0.135000X-0.185000X-0.135000X0*%
%ADD31RoundRect,0.135000X-0.185000X0.135000X-0.185000X-0.135000X0.185000X-0.135000X0.185000X0.135000X0*%
%ADD32RoundRect,0.250000X0.250000X0.475000X-0.250000X0.475000X-0.250000X-0.475000X0.250000X-0.475000X0*%
%ADD33RoundRect,0.250000X0.450000X-0.262500X0.450000X0.262500X-0.450000X0.262500X-0.450000X-0.262500X0*%
%ADD34C,2.000000*%
%ADD35R,2.000000X2.000000*%
%ADD36RoundRect,0.250000X-0.325000X-0.650000X0.325000X-0.650000X0.325000X0.650000X-0.325000X0.650000X0*%
%ADD37RoundRect,0.250000X-0.475000X0.250000X-0.475000X-0.250000X0.475000X-0.250000X0.475000X0.250000X0*%
%ADD38RoundRect,0.250000X-0.262500X-0.450000X0.262500X-0.450000X0.262500X0.450000X-0.262500X0.450000X0*%
%ADD39RoundRect,0.250000X0.325000X0.650000X-0.325000X0.650000X-0.325000X-0.650000X0.325000X-0.650000X0*%
%ADD40RoundRect,0.250000X-0.312500X-0.625000X0.312500X-0.625000X0.312500X0.625000X-0.312500X0.625000X0*%
%ADD41R,5.500000X2.150000*%
%ADD42RoundRect,0.250000X-0.450000X0.262500X-0.450000X-0.262500X0.450000X-0.262500X0.450000X0.262500X0*%
%ADD43RoundRect,0.250000X-0.375000X-0.625000X0.375000X-0.625000X0.375000X0.625000X-0.375000X0.625000X0*%
%ADD44RoundRect,0.150000X0.587500X0.150000X-0.587500X0.150000X-0.587500X-0.150000X0.587500X-0.150000X0*%
%ADD45RoundRect,0.250000X0.625000X-0.375000X0.625000X0.375000X-0.625000X0.375000X-0.625000X-0.375000X0*%
%ADD46R,5.400000X2.900000*%
%ADD47RoundRect,0.250000X-0.650000X1.000000X-0.650000X-1.000000X0.650000X-1.000000X0.650000X1.000000X0*%
%ADD48R,0.599999X1.400000*%
%ADD49C,1.500000*%
%ADD50RoundRect,0.050000X0.450000X-0.525000X0.450000X0.525000X-0.450000X0.525000X-0.450000X-0.525000X0*%
%ADD51RoundRect,0.250000X0.475000X-0.250000X0.475000X0.250000X-0.475000X0.250000X-0.475000X-0.250000X0*%
%ADD52R,1.800000X1.200000*%
%ADD53R,3.200000X3.200000*%
%ADD54RoundRect,0.050000X-0.050000X-0.387500X0.050000X-0.387500X0.050000X0.387500X-0.050000X0.387500X0*%
%ADD55RoundRect,0.050000X-0.387500X-0.050000X0.387500X-0.050000X0.387500X0.050000X-0.387500X0.050000X0*%
%ADD56RoundRect,0.150000X0.150000X-0.512500X0.150000X0.512500X-0.150000X0.512500X-0.150000X-0.512500X0*%
%ADD57R,0.250000X1.650000*%
%ADD58R,0.900000X0.300000*%
%ADD59RoundRect,0.150000X0.150000X-0.825000X0.150000X0.825000X-0.150000X0.825000X-0.150000X-0.825000X0*%
%ADD60R,1.600000X1.600000*%
%ADD61RoundRect,0.135000X-0.135000X-0.185000X0.135000X-0.185000X0.135000X0.185000X-0.135000X0.185000X0*%
G04 APERTURE END LIST*
D10*
X161899999Y-76080000D03*
D11*
X157719999Y-76080000D03*
D10*
X161899999Y-84720000D03*
D11*
X157719999Y-84720000D03*
D12*
X157144999Y-83600000D03*
X157144999Y-82800000D03*
D13*
X157144999Y-82150000D03*
X157144999Y-81150000D03*
X157144999Y-79650000D03*
X157144999Y-78650000D03*
D12*
X157144999Y-78000000D03*
X157144999Y-77200000D03*
X157144999Y-77200000D03*
X157144999Y-78000000D03*
D13*
X157144999Y-79150000D03*
X157144999Y-80150000D03*
X157144999Y-80650000D03*
X157144999Y-81650000D03*
D12*
X157144999Y-82800000D03*
X157144999Y-83600000D03*
D14*
X158219999Y-77510000D03*
X158219999Y-83290000D03*
D15*
X150875000Y-121000000D03*
X143125000Y-121000000D03*
D16*
X147550000Y-75137500D03*
X146600000Y-72862500D03*
X148500000Y-72862500D03*
D17*
X152849999Y-132225000D03*
X152849999Y-136500000D03*
D18*
X134500000Y-68000000D03*
X131000000Y-68000000D03*
X127499999Y-68000000D03*
D19*
X158424999Y-101325000D03*
X157464999Y-101325000D03*
D20*
X159224999Y-93215000D03*
X159224999Y-94175000D03*
D21*
X151824999Y-128325000D03*
X154099999Y-128325000D03*
X151824999Y-129275000D03*
X151824999Y-130225000D03*
X154099999Y-129275000D03*
X154099999Y-130225000D03*
D22*
X156919999Y-73710000D03*
X158744999Y-73710000D03*
D23*
X121700000Y-144750000D03*
D24*
X146124999Y-110805000D03*
X146124999Y-109845000D03*
D15*
X143125000Y-116000000D03*
X150875000Y-116000000D03*
D19*
X158424999Y-98725000D03*
X157464999Y-98725000D03*
D18*
X149349999Y-141277302D03*
X152850000Y-141277302D03*
D22*
X147687499Y-136225000D03*
X149512499Y-136225000D03*
D19*
X158424999Y-103925000D03*
X157464999Y-103925000D03*
D25*
X159674999Y-97025000D03*
X157774999Y-97025000D03*
D20*
X156624999Y-93215000D03*
X156624999Y-94175000D03*
D26*
X159562499Y-122000000D03*
X161437499Y-122000000D03*
D20*
X160500000Y-93220000D03*
X160500000Y-94180000D03*
D27*
X157949999Y-108000000D03*
X157949999Y-110000000D03*
D28*
X157949999Y-112000000D03*
D22*
X155562499Y-125000000D03*
X157387499Y-125000000D03*
D29*
X119200000Y-124350000D03*
X119200000Y-121400000D03*
D30*
X153000000Y-93080000D03*
X153000000Y-94100000D03*
D31*
X143400000Y-102200000D03*
X143400000Y-101180000D03*
D32*
X128299999Y-81500000D03*
X130199999Y-81500000D03*
D22*
X128337499Y-83750000D03*
X130162499Y-83750000D03*
D26*
X159624999Y-125000000D03*
X161499999Y-125000000D03*
D33*
X125100000Y-98600000D03*
X125100000Y-100425000D03*
D25*
X132199999Y-92750000D03*
X130299999Y-92750000D03*
D22*
X155562499Y-116000000D03*
X157387499Y-116000000D03*
D25*
X130199999Y-90500000D03*
X128299999Y-90500000D03*
D19*
X143624999Y-98825000D03*
X142664999Y-98825000D03*
D33*
X133899999Y-99300000D03*
X133899999Y-101125000D03*
D20*
X154124999Y-107445000D03*
X154124999Y-108405000D03*
D26*
X159562499Y-116000000D03*
X161437499Y-116000000D03*
D33*
X138299999Y-116600000D03*
X138299999Y-118425000D03*
D26*
X159562499Y-119000000D03*
X161437499Y-119000000D03*
D33*
X131849999Y-145325000D03*
X131849999Y-147150000D03*
D19*
X158424999Y-102625000D03*
X157464999Y-102625000D03*
D34*
X131300000Y-123300000D03*
D35*
X126300000Y-123300000D03*
D33*
X132499999Y-72750000D03*
X132499999Y-74575000D03*
D36*
X120975000Y-96600000D03*
X118025000Y-96600000D03*
D25*
X144874999Y-97125000D03*
X142974999Y-97125000D03*
D37*
X140700000Y-132250000D03*
X140700000Y-130350000D03*
D23*
X159450000Y-144750000D03*
D38*
X135642499Y-114410000D03*
X133817499Y-114410000D03*
D25*
X125300000Y-96500000D03*
X123400000Y-96500000D03*
D39*
X126750000Y-143100000D03*
X129700000Y-143100000D03*
D33*
X125999999Y-72837500D03*
X125999999Y-74662500D03*
D40*
X130712499Y-79000000D03*
X127787499Y-79000000D03*
X149012500Y-79000000D03*
X146087500Y-79000000D03*
D41*
X120600000Y-114500000D03*
X120600000Y-118350000D03*
D42*
X140599999Y-118412500D03*
X140599999Y-116587500D03*
D43*
X120900000Y-99200000D03*
X118100000Y-99200000D03*
D44*
X134024999Y-117450000D03*
X135899999Y-116500000D03*
X135899999Y-118400000D03*
D45*
X122250000Y-121550000D03*
X122250000Y-124350000D03*
D46*
X139749999Y-146000000D03*
X139749999Y-136100000D03*
D25*
X128199999Y-92750000D03*
X126299999Y-92750000D03*
D33*
X143500000Y-86375000D03*
X143500000Y-88200000D03*
D47*
X148599999Y-133475000D03*
X148599999Y-129475000D03*
D48*
X127344999Y-104750000D03*
X128614999Y-104750000D03*
X129884999Y-104750000D03*
X131154999Y-104750000D03*
X131154999Y-110250000D03*
X129884999Y-110250000D03*
X128614999Y-110250000D03*
X127344999Y-110250000D03*
D22*
X155562499Y-122000000D03*
X157387499Y-122000000D03*
D49*
X119000000Y-102890000D03*
X119000000Y-105430000D03*
X119000000Y-107970000D03*
X119000000Y-110510000D03*
D33*
X150700000Y-72750000D03*
X150700000Y-74575000D03*
D50*
X127409999Y-86135000D03*
X131089999Y-86135000D03*
X131089999Y-87865000D03*
X127409999Y-87865000D03*
D51*
X154824999Y-91925000D03*
X154824999Y-93825000D03*
D22*
X155562499Y-119000000D03*
X157387499Y-119000000D03*
D51*
X125100000Y-110150000D03*
X125100000Y-112050000D03*
D52*
X148124999Y-107925000D03*
X152124999Y-107925000D03*
X152124999Y-110325000D03*
X148124999Y-110325000D03*
D23*
X159450000Y-64500000D03*
D53*
X150874999Y-100275000D03*
D54*
X148274999Y-96837500D03*
X148674999Y-96837500D03*
X149074999Y-96837500D03*
X149474999Y-96837500D03*
X149874999Y-96837500D03*
X150274999Y-96837500D03*
X150674999Y-96837500D03*
X151074999Y-96837500D03*
X151474999Y-96837500D03*
X151874999Y-96837500D03*
X152274999Y-96837500D03*
X152674999Y-96837500D03*
X153074999Y-96837500D03*
X153474999Y-96837500D03*
D55*
X154312499Y-97675000D03*
X154312499Y-98075000D03*
X154312499Y-98475000D03*
X154312499Y-98875000D03*
X154312499Y-99275000D03*
X154312499Y-99675000D03*
X154312499Y-100075000D03*
X154312499Y-100475000D03*
X154312499Y-100875000D03*
X154312499Y-101275000D03*
X154312499Y-101675000D03*
X154312499Y-102075000D03*
X154312499Y-102475000D03*
X154312499Y-102875000D03*
D54*
X153474999Y-103712500D03*
X153074999Y-103712500D03*
X152674999Y-103712500D03*
X152274999Y-103712500D03*
X151874999Y-103712500D03*
X151474999Y-103712500D03*
X151074999Y-103712500D03*
X150674999Y-103712500D03*
X150274999Y-103712500D03*
X149874999Y-103712500D03*
X149474999Y-103712500D03*
X149074999Y-103712500D03*
X148674999Y-103712500D03*
X148274999Y-103712500D03*
D55*
X147437499Y-102875000D03*
X147437499Y-102475000D03*
X147437499Y-102075000D03*
X147437499Y-101675000D03*
X147437499Y-101275000D03*
X147437499Y-100875000D03*
X147437499Y-100475000D03*
X147437499Y-100075000D03*
X147437499Y-99675000D03*
X147437499Y-99275000D03*
X147437499Y-98875000D03*
X147437499Y-98475000D03*
X147437499Y-98075000D03*
X147437499Y-97675000D03*
D37*
X129549999Y-147150000D03*
X129549999Y-145250000D03*
D16*
X129249999Y-75137500D03*
X128299999Y-72862500D03*
X130199999Y-72862500D03*
D56*
X143649999Y-130475000D03*
X144599999Y-130475000D03*
X145549999Y-130475000D03*
X145549999Y-132750000D03*
X144599999Y-132750000D03*
X143649999Y-132750000D03*
D51*
X125100000Y-103750000D03*
X125100000Y-105650000D03*
D31*
X151800000Y-94100000D03*
X151800000Y-93080000D03*
D22*
X156919999Y-87110000D03*
X158744999Y-87110000D03*
D37*
X143500000Y-84200000D03*
X143500000Y-82300000D03*
D19*
X158424999Y-100025000D03*
X157464999Y-100025000D03*
D33*
X131849999Y-141650000D03*
X131849999Y-143475000D03*
D42*
X144400000Y-74575000D03*
X144400000Y-72750000D03*
D23*
X121700000Y-64500000D03*
D20*
X150424999Y-93165000D03*
X150424999Y-94125000D03*
X157924999Y-93215000D03*
X157924999Y-94175000D03*
D18*
X149300001Y-68000000D03*
X145800000Y-68000000D03*
D36*
X145449999Y-127900000D03*
X142499999Y-127900000D03*
D57*
X144324999Y-94475000D03*
D58*
X142924999Y-95225000D03*
X142924999Y-94725000D03*
X142924999Y-94225000D03*
X142924999Y-93725000D03*
X145724999Y-93725000D03*
X145724999Y-94225000D03*
X145724999Y-94725000D03*
X145724999Y-95225000D03*
D59*
X127344999Y-96775000D03*
X128614999Y-96775000D03*
X129884999Y-96775000D03*
X131154999Y-96775000D03*
X131154999Y-101725000D03*
X129884999Y-101725000D03*
X128614999Y-101725000D03*
X127344999Y-101725000D03*
D60*
X134529999Y-103890000D03*
X137069999Y-103890000D03*
X137069999Y-111510000D03*
X134529999Y-111510000D03*
D59*
X145645000Y-82775000D03*
X146915000Y-82775000D03*
X148185000Y-82775000D03*
X149455000Y-82775000D03*
X149455000Y-87725000D03*
X148185000Y-87725000D03*
X146915000Y-87725000D03*
X145645000Y-87725000D03*
D61*
X152944999Y-106025000D03*
X151924999Y-106025000D03*
M02*
