M48
; DRILL file {KiCad 8.0.6} date 2025-03-23T16:04:09+0100
; FORMAT={-:-/ absolute / metric / decimal}
; #@! TF.CreationDate,2025-03-23T16:04:09+01:00
; #@! TF.GenerationSoftware,Kicad,Pcbnew,8.0.6
; #@! TF.FileFunction,Plated,1,2,PTH
FMAT,2
METRIC
; #@! TA.AperFunction,Plated,PTH,ViaDrill
T1C0.200
; #@! TA.AperFunction,Plated,PTH,ComponentDrill
T2C0.200
; #@! TA.AperFunction,Plated,PTH,ViaDrill
T3C0.300
; #@! TA.AperFunction,Plated,PTH,ComponentDrill
T4C0.600
; #@! TA.AperFunction,Plated,PTH,ComponentDrill
T5C0.750
; #@! TA.AperFunction,Plated,PTH,ComponentDrill
T6C1.000
; #@! TA.AperFunction,Plated,PTH,ComponentDrill
T7C1.295
%
G90
G05
T1
X150.675Y-97.6
T2
X149.525Y-98.925
X149.525Y-101.625
X152.225Y-98.925
X152.225Y-101.625
T3
X117.5Y-67.5
X117.5Y-72.5
X117.5Y-77.5
X117.5Y-82.5
X117.5Y-87.5
X117.5Y-92.5
X117.5Y-127.5
X117.5Y-132.5
X117.5Y-137.5
X117.5Y-142.5
X119.5Y-96.6
X119.5Y-101.1
X122.5Y-72.5
X122.5Y-77.5
X122.5Y-82.5
X122.5Y-87.5
X122.5Y-92.5
X122.5Y-97.5
X122.9Y-101.5
X125.1Y-102.2
X127.0Y-77.1
X127.5Y-62.5
X127.5Y-112.5
X127.5Y-127.5
X127.6Y-99.5
X128.1Y-92.75
X128.75Y-92.75
X129.2Y-73.1
X129.2Y-73.9
X129.2Y-103.3
X129.3Y-76.5
X129.3Y-77.3
X129.3Y-92.3
X129.3Y-93.2
X129.4Y-88.2
X129.85Y-92.75
X130.4Y-98.4
X130.5Y-92.75
X131.6Y-77.2
X131.9Y-110.15
X132.45Y-109.55
X132.5Y-62.5
X132.5Y-82.5
X132.5Y-87.5
X132.5Y-97.5
X132.5Y-112.5
X132.5Y-117.5
X132.5Y-132.5
X132.5Y-137.5
X136.7Y-130.5
X137.5Y-62.5
X137.5Y-67.5
X137.5Y-72.5
X137.5Y-77.5
X137.5Y-82.5
X137.5Y-87.5
X137.5Y-92.5
X137.5Y-97.5
X137.5Y-142.5
X137.55Y-114.95
X137.55Y-120.35
X142.4Y-131.3
X142.4Y-132.0
X142.4Y-132.7
X142.4Y-133.4
X142.5Y-62.5
X142.5Y-67.5
X142.5Y-72.5
X142.5Y-77.5
X142.5Y-82.5
X142.5Y-142.5
X143.0Y-131.7
X143.3Y-90.9
X143.35Y-103.2
X143.35Y-113.2
X144.5Y-109.1
X145.55Y-89.95
X145.55Y-100.978
X145.6Y-75.6
X145.6Y-102.8
X145.9Y-106.8
X145.95Y-101.552
X146.2Y-84.6
X146.5Y-102.0
X146.5Y-105.5
X147.3Y-85.7
X147.35Y-105.5
X147.4Y-80.8
X147.5Y-62.5
X147.5Y-73.1
X147.5Y-74.0
X147.5Y-76.5
X147.5Y-77.3
X147.5Y-89.6
X147.5Y-142.5
X147.5Y-147.5
X147.55Y-91.05
X148.0Y-85.7
X148.5Y-92.2
X148.7Y-85.7
X149.2Y-105.1
X149.45Y-89.95
X149.6Y-75.6
X150.9Y-88.2
X150.9Y-118.35
X152.025Y-104.8
X152.206Y-102.825
X152.4Y-89.2
X152.5Y-62.5
X152.5Y-67.5
X152.5Y-72.5
X152.5Y-77.5
X152.5Y-147.5
X152.725Y-104.8
X152.825Y-95.9
X153.3Y-95.0
X154.5Y-85.7
X154.5Y-86.5
X154.5Y-87.3
X154.9Y-83.7
X155.8Y-99.2
X155.9Y-103.7
X156.85Y-96.6
X156.85Y-97.2
X156.85Y-97.8
X157.5Y-67.5
X157.5Y-72.5
X157.5Y-127.5
X157.5Y-132.5
X157.5Y-137.5
X157.5Y-147.5
X159.2Y-102.0
X159.6Y-95.5
X159.7Y-98.8
X161.45Y-117.35
X161.45Y-123.45
X161.5Y-120.5
X162.5Y-62.5
X162.5Y-67.5
X162.5Y-72.5
X162.5Y-77.5
X162.5Y-82.5
X162.5Y-87.5
X162.5Y-107.5
X162.5Y-112.5
X162.5Y-127.5
X162.5Y-132.5
X162.5Y-137.5
X162.5Y-142.5
T5
X119.0Y-102.89
X119.0Y-105.43
X119.0Y-107.97
X119.0Y-110.51
X157.95Y-108.0
X157.95Y-110.0
X157.95Y-112.0
T6
X126.3Y-123.3
X131.3Y-123.3
T7
X127.5Y-68.0
X131.0Y-68.0
X134.5Y-68.0
X145.8Y-68.0
X149.3Y-68.0
X149.35Y-141.277
X152.85Y-141.277
T4
X157.17Y-76.08G85X158.27Y-76.08
G05
X157.17Y-84.72G85X158.27Y-84.72
G05
X161.5Y-76.08G85X162.3Y-76.08
G05
X161.5Y-84.72G85X162.3Y-84.72
G05
M30
