G04 #@! TF.GenerationSoftware,KiCad,Pcbnew,8.0.6*
G04 #@! TF.CreationDate,2025-03-23T16:03:48+01:00*
G04 #@! TF.ProjectId,RS485-insolated-repeater,52533438-352d-4696-9e73-6f6c61746564,v1.0*
G04 #@! TF.SameCoordinates,Original*
G04 #@! TF.FileFunction,Legend,Bot*
G04 #@! TF.FilePolarity,Positive*
%FSLAX46Y46*%
G04 Gerber Fmt 4.6, Leading zero omitted, Abs format (unit mm)*
G04 Created by KiCad (PCBNEW 8.0.6) date 2025-03-23 16:03:48*
%MOMM*%
%LPD*%
G01*
G04 APERTURE LIST*
G04 Aperture macros list*
%AMRoundRect*
0 Rectangle with rounded corners*
0 $1 Rounding radius*
0 $2 $3 $4 $5 $6 $7 $8 $9 X,Y pos of 4 corners*
0 Add a 4 corners polygon primitive as box body*
4,1,4,$2,$3,$4,$5,$6,$7,$8,$9,$2,$3,0*
0 Add four circle primitives for the rounded corners*
1,1,$1+$1,$2,$3*
1,1,$1+$1,$4,$5*
1,1,$1+$1,$6,$7*
1,1,$1+$1,$8,$9*
0 Add four rect primitives between the rounded corners*
20,1,$1+$1,$2,$3,$4,$5,0*
20,1,$1+$1,$4,$5,$6,$7,0*
20,1,$1+$1,$6,$7,$8,$9,0*
20,1,$1+$1,$8,$9,$2,$3,0*%
G04 Aperture macros list end*
%ADD10C,0.300000*%
%ADD11C,0.508000*%
%ADD12O,1.800000X1.000000*%
%ADD13O,2.100000X1.000000*%
%ADD14C,0.650000*%
%ADD15C,1.803400*%
%ADD16C,5.700000*%
%ADD17O,1.750000X1.200000*%
%ADD18RoundRect,0.250000X0.625000X-0.350000X0.625000X0.350000X-0.625000X0.350000X-0.625000X-0.350000X0*%
%ADD19C,2.000000*%
%ADD20R,2.000000X2.000000*%
%ADD21C,1.500000*%
G04 APERTURE END LIST*
D10*
X140400000Y-99100000D02*
X141000000Y-98800000D01*
X138600000Y-100000000D02*
X139200000Y-99700000D01*
X138600000Y-98800000D02*
X141000000Y-100000000D01*
X140400000Y-94600000D02*
X141000000Y-94300000D01*
X138600000Y-95500000D02*
X139200000Y-95200000D01*
X138600000Y-94300000D02*
X141000000Y-95500000D01*
X140400000Y-90100000D02*
X141000000Y-89800000D01*
X138600000Y-91000000D02*
X139200000Y-90700000D01*
X138600000Y-89800000D02*
X141000000Y-91000000D01*
X140400000Y-85600000D02*
X141000000Y-85300000D01*
X138600000Y-86500000D02*
X139200000Y-86200000D01*
X138600000Y-85300000D02*
X141000000Y-86500000D01*
X140400000Y-81100000D02*
X141000000Y-80800000D01*
X138600000Y-82000000D02*
X139200000Y-81700000D01*
X138600000Y-80800000D02*
X141000000Y-82000000D01*
X140400000Y-76600000D02*
X141000000Y-76300000D01*
X138600000Y-77500000D02*
X139200000Y-77200000D01*
X138600000Y-76300000D02*
X141000000Y-77500000D01*
X140400000Y-72100000D02*
X141000000Y-71800000D01*
X138600000Y-73000000D02*
X139200000Y-72700000D01*
X138600000Y-71800000D02*
X141000000Y-73000000D01*
X121550000Y-107900000D02*
X120200000Y-107900000D01*
X121575000Y-105500000D02*
X120200000Y-105500000D01*
X126150000Y-107900000D02*
X122800000Y-107900000D01*
X126150000Y-105500000D02*
X122800000Y-105500000D01*
X130650000Y-107900000D02*
X127300000Y-107900000D01*
X130675000Y-105500000D02*
X127325000Y-105500000D01*
X135175000Y-107900000D02*
X131825000Y-107900000D01*
X135200000Y-105500000D02*
X131850000Y-105500000D01*
X121550000Y-105500000D02*
X121850000Y-106100000D01*
X122750000Y-105500000D02*
X121550000Y-107900000D01*
X122450000Y-107300000D02*
X122750000Y-107900000D01*
X126150000Y-105500000D02*
X126450000Y-106100000D01*
X127350000Y-105500000D02*
X126150000Y-107900000D01*
X127050000Y-107300000D02*
X127350000Y-107900000D01*
X130650000Y-105500000D02*
X130950000Y-106100000D01*
X131850000Y-105500000D02*
X130650000Y-107900000D01*
X131550000Y-107300000D02*
X131850000Y-107900000D01*
X141000000Y-107900000D02*
X136400000Y-107900000D01*
X135200000Y-105500000D02*
X135500000Y-106100000D01*
X136400000Y-105500000D02*
X135200000Y-107900000D01*
X136100000Y-107300000D02*
X136400000Y-107900000D01*
X138600000Y-105500000D02*
X136400000Y-105500000D01*
X141000000Y-103300000D02*
X140400000Y-103600000D01*
X139200000Y-104200000D02*
X138600000Y-104500000D01*
X141000000Y-104500000D02*
X138600000Y-103300000D01*
X139200000Y-68200000D02*
X138600000Y-68500000D01*
X141000000Y-67300000D02*
X140400000Y-67600000D01*
X141000000Y-68500000D02*
X138600000Y-67300000D01*
X140400000Y-63100000D02*
X141000000Y-62800000D01*
X138600000Y-64000000D02*
X139200000Y-63700000D01*
X138600000Y-62800000D02*
X141000000Y-64000000D01*
X138600000Y-59500000D02*
X138600000Y-62800000D01*
X138600000Y-64000000D02*
X138600000Y-67300000D01*
X138600000Y-68500000D02*
X138600000Y-71800000D01*
X138600000Y-73000000D02*
X138600000Y-76300000D01*
X138600000Y-77500000D02*
X138600000Y-80800000D01*
X138600000Y-82000000D02*
X138600000Y-85300000D01*
X138600000Y-86500000D02*
X138600000Y-89800000D01*
X138600000Y-91000000D02*
X138600000Y-94300000D01*
X138600000Y-95500000D02*
X138600000Y-98800000D01*
X138600000Y-100000000D02*
X138600000Y-103300000D01*
X138600000Y-104500000D02*
X138600000Y-105500000D01*
X141000000Y-59500000D02*
X141000000Y-62800000D01*
X141000000Y-64000000D02*
X141000000Y-67300000D01*
X141000000Y-68500000D02*
X141000000Y-71800000D01*
X141000000Y-73000000D02*
X141000000Y-76300000D01*
X141000000Y-77500000D02*
X141000000Y-80800000D01*
X141000000Y-82000000D02*
X141000000Y-85300000D01*
X141000000Y-86500000D02*
X141000000Y-89800000D01*
X141000000Y-91000000D02*
X141000000Y-94300000D01*
X141000000Y-95500000D02*
X141000000Y-98800000D01*
X141000000Y-100000000D02*
X141000000Y-103300000D01*
X141000000Y-104500000D02*
X141000000Y-107800000D01*
D11*
X124230600Y-68000000D02*
G75*
G02*
X123468600Y-68000000I-381000J0D01*
G01*
X123468600Y-68000000D02*
G75*
G02*
X124230600Y-68000000I381000J0D01*
G01*
X156881399Y-141277302D02*
G75*
G02*
X156119399Y-141277302I-381000J0D01*
G01*
X156119399Y-141277302D02*
G75*
G02*
X156881399Y-141277302I381000J0D01*
G01*
X142530601Y-68000000D02*
G75*
G02*
X141768601Y-68000000I-381000J0D01*
G01*
X141768601Y-68000000D02*
G75*
G02*
X142530601Y-68000000I381000J0D01*
G01*
%LPC*%
D12*
X161899999Y-76080000D03*
D13*
X157719999Y-76080000D03*
D12*
X161899999Y-84720000D03*
D13*
X157719999Y-84720000D03*
D14*
X158219999Y-77510000D03*
X158219999Y-83290000D03*
D15*
X134500000Y-68000000D03*
X131000000Y-68000000D03*
X127499999Y-68000000D03*
D16*
X121700000Y-144750000D03*
D15*
X149349999Y-141277302D03*
X152850000Y-141277302D03*
D17*
X157949999Y-108000000D03*
X157949999Y-110000000D03*
D18*
X157949999Y-112000000D03*
D19*
X131300000Y-123300000D03*
D20*
X126300000Y-123300000D03*
D16*
X159450000Y-144750000D03*
D21*
X119000000Y-102890000D03*
X119000000Y-105430000D03*
X119000000Y-107970000D03*
X119000000Y-110510000D03*
D16*
X159450000Y-64500000D03*
X121700000Y-64500000D03*
D15*
X149300001Y-68000000D03*
X145800000Y-68000000D03*
%LPD*%
M02*
